# xmcd
#
# Track frame offsets:
#	150
#	23261
#	40841
#	58271
#	72850
#	90085
#	108144
#	124600
#	139479
#	154205
#	170115
#	193081
#	212543
#	230617
#	249333
#	264241
#	283369
#	301076
#
# Disc length: 4263 seconds
#
# Revision: 1
# Processed by: cddbd v1.5PL3 Copyright (c) Steve Scherf et al.
# Submitted via: audiograbber 1.83.01
#
DISCID=f510a512
DTITLE=Various Artist - Storm Reggae Collection '99.
DYEAR=1900
DGENRE=
TTITLE0=UB-40. - Guns In The Ghetto.
TTITLE1=Inner Circle. - Da Bomb.
TTITLE2=Pato Banton feat. Ali Campbell. - Baby Come Back.
TTITLE3=Bob Marley. - Iron Lion Zion.
TTITLE4=Shinehead. - Jamaican In New York.
TTITLE5=Sauches. - Unchained Melody.
TTITLE6=Donna Marie. - Think Twice.
TTITLE7=C.J. Lewis. - Sweets For My Sweet.
TTITLE8=Dawn Penn. - You Don't Love Me.
TTITLE9=Maxi Priest. - Wild World.
TTITLE10=Diana King. - Do You Realy Want To Hurt Me.
TTITLE11=Bounty Killers With Dirtsman. - Time To Realize.
TTITLE12=Supermax. - Camillo.
TTITLE13=Shaggy. - Way Back Home.
TTITLE14=Shabba Ranks and Chevelle. - Mr. Loverman.
TTITLE15=Laid Back. - Sunshine Reggae.
TTITLE16=Black Uhuru. - Bloodshed.
TTITLE17=Big Mountain. - Baby I Love You Way.
EXTD=
EXTT0=
EXTT1=
EXTT2=
EXTT3=
EXTT4=
EXTT5=
EXTT6=
EXTT7=
EXTT8=
EXTT9=
EXTT10=
EXTT11=
EXTT12=
EXTT13=
EXTT14=
EXTT15=
EXTT16=
EXTT17=
PLAYORDER=
